<svg xmlns="http://www.w3.org/2000/svg" viewBox="0 0 24 24">
   <path d="M1.12 3.06 8.376 10.316 3.557 18.66Q3.122 19.477 3.923 20.026L9.12 23.026Q10.007 23.441 10.486 22.66L14.232 16.172 20.85 22.79 22.12 21.52 2.39 1.79ZM8.0002 14.2971 12.0428 16.6311C12.3598 16.8141 12.4696 17.2239 12.2866 17.5409L9.9526 21.5835A.666.666 120 019.0428 21.8273L5.0002 19.4933C4.6832 19.3103 4.5734 18.9005 4.7564 18.5835L7.0904 14.5409A.666.666 120 018.0002 14.2971M9.4512 15.8519A2.4 2.4 120 006.443 16.8622 2.4 2.4 120 007.0722 19.9725L7.3617 19.4711 7.8813 19.7711 7.5918 20.2725A2.4 2.4 120 0010.6 19.2622 2.4 2.4 120 009.9708 16.1519L9.6813 16.6533 9.1617 16.3533 9.4512 15.8519ZM9.9157 18.3475A.45.45 120 0110.0804 18.9622.45.45 120 019.4657 19.1269.45.45 120 019.301 18.5122.45.45 120 019.9157 18.3475ZM7.5774 16.9975A.45.45 120 017.7421 17.6122.45.45 120 017.1274 17.7769.45.45 0 016.9627 17.1622.45.45 120 017.5774 16.9975ZM9.656 11.569A2.4 2.4 120 0010.5721 13.9103L10.8616 13.4089 11.3812 13.7089 11.0917 14.2103A2.4 2.4 120 0012.424 14.364L13.5 15.44 13.4525 15.5213A.666.666 120 0112.5427 15.7651L8.5001 13.4311C8.1831 13.2481 8.0733 12.8383 8.2563 12.5213L9.107 11.047ZM15.359 12.219 15.786 11.479A.666.666 0 0015.543 10.569L11.5 8.235A.666.666 0 0011.299 8.159L10.235 7.095 13.557 1.34Q14.041.567 14.923.974L20.12 3.974Q20.903 4.446 20.486 5.34L16.091 12.951M16.9155 6.2231A.45.45 120 0117.0802 6.8378.45.45 120 0116.4655 7.0025.45.45 120 0116.3008 6.3878.45.45 120 0116.9155 6.2231ZM14.5772 4.8731A.45.45 120 0114.7419 5.4878.45.45 120 0114.1272 5.6525C13.909 5.5265 13.838 5.2534 13.9625 5.0378A.45.45 120 0114.5772 4.8731M16.451 3.7275A2.4 2.4 120 0013.4428 4.7378 2.4 2.4 120 0014.072 7.8481L14.3615 7.3467 14.8811 7.6467 14.5916 8.1481A2.4 2.4 120 0017.5998 7.1378 2.4 2.4 120 0016.9706 4.0275L16.6811 4.5289 16.1615 4.2289 16.451 3.7275M15 2.1727A.666.666 120 0014.0902 2.4165L11.7562 6.4591C11.5732 6.7761 11.683 7.1859 12 7.3689L16.0426 9.7029A.666.666 120 0016.9524 9.4591L19.2864 5.4165C19.4694 5.0995 19.3596 4.6897 19.0426 4.5067L15 2.1727"/>
</svg>