<svg xmlns="http://www.w3.org/2000/svg" viewBox="0 0 24 24">
   <path d="M12 11.5C11.4085 11.5 10.9284 11.9801 10.9284 12.5716V12.653C10.7655 12.533 10.5555 12.4643 10.3282 12.4643 9.7367 12.4643 9.2566 12.9444 9.2566 13.5359 9.2566 13.9602 9.5095 14.3289 9.8696 14.5003 9.5095 14.6718 9.2566 15.0362 9.2566 15.4647 9.2566 16.0562 9.7367 16.5363 10.3282 16.5363 10.5554 16.5363 10.7654 16.4634 10.9284 16.3476V16.429C10.9284 17.0208 11.4085 17.5009 12 17.5009S13.0716 17.0208 13.0716 16.4293V16.3479C13.2345 16.4636 13.4445 16.5366 13.6718 16.5366 14.2633 16.5366 14.7434 16.0565 14.7434 15.465 14.7434 15.0363 14.4905 14.672 14.1304 14.5006 14.4905 14.3291 14.7434 13.9605 14.7434 13.5362 14.7434 12.9447 14.2633 12.4646 13.6718 12.4646 13.4446 12.4646 13.2346 12.5332 13.0716 12.6533L13.0716 12.5719C13.0716 11.9804 12.5915 11.5003 12 11.5003M12 15.5725C11.4085 15.5725 10.9284 15.0924 10.9284 14.5009S11.4085 13.4293 12 13.4293 13.0716 13.9094 13.0716 14.5009 12.5915 15.5725 12 15.5725M9 10 15 10A3 3 0 0118 13L18 20A3 3 0 0115 23L9 23A3 3 0 016 20L6 13A3 3 0 019 10M16 19 14.25 19 14.25 21 15 21A1 1 0 0016 20ZM8 20A1 1 0 009 21L9.75 21 9.75 19 8 19ZM10.75 21 13.25 21 13.25 19 10.75 19ZM12 8.2 10.9 7.4 12.28 5.6 10.9 3.8 12.88 1.2 13.98 2 12.6 3.8 13.98 5.6ZM8.25 8.2 7.15 7.4 8.53 5.6 7.15 3.8 9.13 1.2 10.23 2 8.85 3.8 10.23 5.6ZM15.75 8.2 14.65 7.4 16.03 5.6 14.65 3.8 16.63 1.2 17.73 2 16.35 3.8 17.73 5.6Z"/>
</svg>