<svg xmlns="http://www.w3.org/2000/svg" viewBox="0 0 24 24">
   <path d="M12 18C11.2 18 10.55 17.35 10.55 16.55S11.2 15.1 12 15.1 13.45 15.75 13.45 16.55 12.8 18 12 18ZM9 10 17.994 18.969 18 20A3 3 0 0115 23L9 23A3 3 0 016 20L6 13A3 3 0 019 10M12 8.2 10.9 7.4 12.28 5.6 10.9 3.8 12.88 1.2 13.98 2 12.6 3.8 13.98 5.6ZM9.586 6.446 7.839 4.699 7.15 3.8 9.13 1.2 10.23 2 8.85 3.8 10.23 5.6ZM15.75 8.2 14.65 7.4 16.03 5.6 14.65 3.8 16.63 1.2 17.73 2 16.35 3.8 17.73 5.6ZM2.39 1.79l19.73 19.73-1.27 1.27-19.73-19.73Zl-1.27 1.27ZM10.55 19.15A1 1 0 0013.45 19.15L13.45 19.04C14.532 19.792 15.883 18.819 15.682 17.622L10.98 12.92Q10.549 13.363 10.55 13.95L10.55 14.06C8.792 12.975 7.308 15.547 9.12 16.55 7.348 17.439 8.741 20.167 10.55 19.04ZM18 14.86 18 13A3 3 0 0015 10L13.14 10Z"/>
</svg>
