<svg xmlns="http://www.w3.org/2000/svg" viewBox="0 0 24 24">
   <path d="M13.6971 2.3833 21.6167 10.3029S23.3137 12 21.6167 13.6971L13.6971 21.6167C12 23.3137 10.3029 21.6167 10.3029 21.6167L2.3833 13.6971S.6863 12 2.3833 10.3029L10.3029 2.3833S12 .6863 13.6971 2.3833ZM13.6971 10.3029A.8.8 135 0010.3029 13.6971.8.8 135 0013.6971 10.3029M14.086 9.4898 16.7376 6.8381 12.9899 3.0905C12 2.1005 11.0101 3.0905 11.0101 3.0905L7.2624 6.8381 9.914 9.4898A3.2 3.2 135 0114.086 9.4898ZM6.8381 7.2624 3.0905 11.0101S2.1005 12 3.0862 12.9857L6.8381 16.7376 9.4898 14.086A3.2 3.2 135 019.4898 9.914ZM20.9095 11.0101 17.1619 7.2624 14.5102 9.914A3.2 3.2 135 0114.5102 14.086L17.1619 16.7376 20.9095 12.9899S21.8995 12 20.9095 11.0101M16.7376 17.1619 14.086 14.5102A3.2 3.2 135 019.914 14.5102L7.2624 17.1619 11.0101 20.9095C12 21.8995 12.9899 20.9095 12.9899 20.9095L16.7376 17.1619"/>
</svg>