<svg xmlns="http://www.w3.org/2000/svg" viewBox="0 0 24 24">
   <path d="M19.8 6.8a.9.09 90 010 10.08.9.09 90 010-10.08ZM16.875 4a.9.09 0 01-9.45 0 .9.09 0 019.45 0ZM5.533 4.994 7.533 2.994 19.033 2.994 17.033 4.994ZM3.154 6.179A2.7 2.7 0 002.475 7.98V18.78A2.7 2.7 0 005.175 21.48H15.975A2.7 2.7 0 0017.784 20.788l3.1467-3.14A2.7 2.7 0 0021.375 16.08V5.3a2.7 2.7 0 00-2.7-2.7H7.875A2.7 2.7 0 006.525 3.03ZM7.875 12.48A.9.9 90 018.775 13.38.9.9 90 017.875 14.28.9.9 0 016.975 13.38.9.9 90 017.875 12.48M13.275 12.48A.9.9 90 0114.175 13.38.9.9 90 0113.275 14.28.9.9 90 0112.375 13.38.9.9 90 0113.275 12.48M17.775 7.98V18.78A1.8 1.8 90 0115.975 20.58H5.175A1.8 1.8 0 013.375 18.78V7.98A1.8 1.8 90 015.175 6.18L15.975 6.18A1.8 1.8 0 0117.775 7.98ZM10.275 7.98A3.6 3.6 90 0010.275 18.78 7.2 7.2 90 0010.275 18.78V18H10.875V18.78A3.6 3.6 90 0010.875 7.98V8.76H10.275ZM18.675 18.5l.106-11.5 2-2 0 11.5Z"/>
</svg>