<svg xmlns="http://www.w3.org/2000/svg" viewBox="0 0 24 24">
   <path d="M19.78 6.6l2.047 9.78c.035.174.233 1.02-.645 1.048H20.62 6.22c-.72-.028-.912-.748-.96-.988L3.078 5.764c.022.116-.242-.788.748-.792H18.7c.423.05.804.369.915.89M3.304 5.107c-1.342.515-1.223.892-1.106 1.42L4.31 16.568c.249 1.113.436 1.452 1.354 1.47h14.09c.316-.009.682.107 1.658-.523.191-.123.255-.178.331-.327M2.184 6.481l.012 7.361c.013.382.055.444.118.819l.488 1.804c.65 1.684 1.978 1.568 2.862 1.564M4.247 6.24l2.045 9.942 14.445-.023-2.046-9.942-14.45.026"/>
</svg>