<svg xmlns="http://www.w3.org/2000/svg" viewBox="0 0 24 24">
   <path d="M12 5A8.28 4.05 0 0112 13.1 8.28 4.05 0 0112 5ZM3.1926 8.303C2.4231 10.382 2.55 12.695 3.045 14.27 3.2682 15.5498 5.7 19.4 12 19.31 18.3 19.4 20.6418 15.5498 20.955 14.27 21.45 12.65 21.5769 10.382 20.8074 8.303A9 4.59 0 003.1926 8.303ZM12 6.08A1.35.45 0 0012 6.98 1.35.45 0 0012 6.08ZM12 10.4A1.35.45 0 0012 9.5 1.35.45 0 0012 10.4M15.6 8.6A1.35.45 0 0015.6 7.7 1.35.45 0 0015.6 8.6M8.4 8.6A1.35.45 0 008.4 7.7 1.35.45 0 008.4 8.6"/>
</svg>