<svg xmlns="http://www.w3.org/2000/svg" viewBox="0 0 24 24">
   <path d="M8.072 14.3423A.924.924 90 008.072 16.1903.924.924 90 008.072 14.3423ZM11.9253 14.3425A.924.924 90 0011.9253 16.1905.924.924 90 0011.9253 14.3425ZM9.44 18.56C9.9 19.1 10.1 19.1 10.56 18.56 11.7 17.35 11.086 16.8858 10.4623 16.8835L9.5377 16.8835C8.914 16.8858 8.3 17.35 9.443 18.56M12.427 11.725C12.7246 11.8939 13.862 12.185 14.79 13.755 15.573 13.229 14.26 8.856 14.236 8.582 14.1898 8.455 14.1259 8.5089 14.0935 8.5851 13.484 9.506 12.93 10.507 12.434 11.725ZM8.75 20.9C9.3 21.1 10.7 21.1 11.25 20.901 11.282 20.893 11.282 20.859 11.245 20.857 10.8 20.817 10.4 20.437 10 19.7 9.6 20.437 9.2 20.819 8.75 20.867 8.724 20.868 8.724 20.895 8.75 20.9ZM10 11.2801A5.775 5.775 90 0111.4786 11.441C12.108 10.078 12.715 8.917 13.4698 7.7643 13.7193 7.2592 14.6271 7.1429 14.9467 7.9098 15.451 9.7493 16.8455 14.076 15.2193 14.8822 15.411 15.6345 15.4041 16.2474 15.4149 17.1345 16.2311 20.5048 14.2214 21.1293 12.7284 21.0607 11.8914 22.0186 11.6535 21.987 10 22.0001 8.3465 21.987 8.1086 22.0186 7.2716 21.0607 5.7786 21.1293 3.7689 20.5048 4.5851 17.1345 4.5959 16.2474 4.589 15.6345 4.7807 14.8822 3.1545 14.076 4.549 9.7493 5.0533 7.9098 5.3729 7.1429 6.2807 7.2592 6.5302 7.7643 7.285 8.917 7.892 10.078 8.5214 11.441A5.775 5.775 90 0110 11.2801ZM7.566 11.725C7.07 10.507 6.516 9.506 5.9065 8.5851 5.8741 8.5089 5.8102 8.455 5.764 8.582 5.74 8.856 4.427 13.229 5.21 13.755 6.138 12.185 7.2754 11.8939 7.573 11.725Z"/>
</svg>