<svg xmlns="http://www.w3.org/2000/svg" viewBox="0 0 24 24">
   <path d="M8.3316 19.1062 7.6838 21.5241 9.6099 22.0402 10.2577 19.6223 8.3316 19.1062M19.9884 12.3762 19.4723 14.3023 21.8901 14.9502 22.4062 13.0241 19.9884 12.3762M14.634 18.5622 16.134 21.1603 17.866 20.1603 16.366 17.5622 14.634 18.5622ZM19.9282 9.7321 17.9282 6.2679l-13.8564 8 2 3.4641 13.8564-8M15.6684 4.8938 16.3162 2.4759 14.3901 1.9598 13.7423 4.3777 15.6684 4.8938M4.0116 11.6238 4.5277 9.6977 2.1099 9.0498 1.5938 10.9759 4.0116 11.6238M9.366 5.4378 7.866 2.8397 6.134 3.8397 7.634 6.4378 9.366 5.4378Z"/>
</svg>