<svg xmlns="http://www.w3.org/2000/svg" viewBox="0 0 24 24">
   <path d="M12 11c-.55 0-1 .45-1 1s.45 1 1 1 1-.45 1-1-.45-1-1-1M10.72 9.3c.39-.19.82-.3 1.28-.3s.89.11 1.29.3L14 8.57C13.43 8.22 12.74 8 12 8s-1.42.22-2 .57l.72.73M16 12c0-.74-.21-1.42-.57-2l-.73.72c.19.39.3.82.3 1.28.001.417-.084.694-.14.886.28-.167.635-.361 1.124-.54.008-.093.016-.206.016-.346M9 12c0-.46.11-.89.3-1.28L8.57 10c-.35.58-.57 1.26-.57 2s.22 1.43.57 2l.73-.71c-.19-.4-.3-.83-.3-1.29m1.72 2.7-.72.73c.58.36 1.26.57 2 .57 0 0 .186.001.349-.016.13-.364.315-.765.538-1.124-.238.074-.513.14-.887.14-.269-.003-.724-.031-1.28-.3m6.17-6.17-.72.72c.52.79.83 1.75.83 2.75.001.028 0 .056-.001.084.373-.055.604-.084 1.001-.084 0-1.3-.41-2.5-1.11-3.47m-7.64-.7C10.04 7.31 11 7 12 7s1.96.31 2.75.83l.72-.72C14.5 6.42 13.3 6 12 6s-2.5.42-3.47 1.11l.72.72M12 17s-1.96-.31-2.75-.83l-.72.72C9.5 17.59 10.7 18 12 18c0-.321.024-.637.084-1.0007C12.056 17 12.028 17 12 17M7.83 14.75C7.31 13.96 7 13 7 12s.31-1.96.83-2.75l-.72-.72C6.42 9.5 6 10.7 6 12s.42 2.5 1.11 3.47l.72-.72Zm13.92 1.5L17 21l-2.75-3 1.16-1.16L17 18.43l3.59-3.59 1.16 1.41ZM12 18a1 1 0 010 0m7.9928-5.6594C19.998 12.231 19.999 12.115 20 12A1 1 0 004 12c0 5 4 8 8 8 .1137-.0023.232 0 .341-.007.223.636.593 1.325 1.096 1.903-.488.074-.939.099-1.437.104C6 22 2 17 2 12 2 6 7 2 12 2c6 0 10 5 10 10 0 .3333 0 .6667-.103 1.437-.635-.55-1.401-.925-1.9042-1.0964"/>
</svg>