<svg xmlns="http://www.w3.org/2000/svg" viewBox="0 0 24 24">
   <path d="M22.5 21C17.5 21 17.5 14 17.5 14L19.5 14 16.5 10 13.5 14 15.5 14S15.5 23 22.5 23L22.5 21M1.5 21C6.5 21 6.5 14 6.5 14L4.5 14 7.5 10 10.5 14 8.5 14S8.5 23 1.5 23L1.5 21M18.2 16C18.291 16.453 18.472 17.29 18.8 18L22 18 22 1 20 1 20 16M11 9 9 9 12 5 15 9 13 9 13 23 11 23ZM15.212 16.002 13.5 16 13.5 18 15.7 18C15.494 17.342 15.315 16.689 15.212 16.002M8.788 16.002l1.712-.002 0 2-2.2 0c.206-.658.385-1.311.488-1.998M5.8 16C5.709 16.453 5.528 17.29 5.2 18L2 18 2 1 4 1 4 16"/>
</svg>