<svg xmlns="http://www.w3.org/2000/svg" viewBox="0 0 24 24">
   <path d="M15.75 19.13c-.83 0-1.5-.84-1.5-1.88 0-1.03.67-1.87 1.5-1.87s1.5.84 1.5 1.87c0 1.04-.67 1.88-1.5 1.88M12 11.25c-1.24 0-2.25-.84-2.25-1.87C9.75 8.34 10.76 7.5 12 7.5s2.25.84 2.25 1.88c0 1.03-1.01 1.87-2.25 1.87M8.25 19.13c-.83 0-1.5-.84-1.5-1.88 0-1.03.67-1.87 1.5-1.87s1.5.84 1.5 1.87c0 1.04-.67 1.88-1.5 1.88M12 8.25c.41 0 .75.34.75.75s-.34.75-.75.75-.75-.34-.75-.75.34-.75.75-.75M18.75 12c-.32 0-.63.07-.91.2-.48-.61-1.13-1.13-1.91-1.53.57-.8.91-1.77.91-2.82 0-.02 0-.04 0-.06 1.09-.23 1.91-1.2 1.91-2.37C18.75 4.09 17.66 3 16.33 3c-.69 0-1.33.29-1.75.75C13.83 3.28 12.95 3 12 3s-1.84.28-2.58.75C9 3.29 8.36 3 7.67 3 6.34 3 5.25 4.09 5.25 5.42c0 1.16.82 2.13 1.9 2.37 0 .02 0 .04 0 .06 0 1.05.35 2.03.91 2.82-.77.4-1.42.92-1.9 1.53-.28-.13-.59-.2-.91-.2C4 12 3 13 3 14.25S4 16.5 5.25 16.5c.02 0 .04 0 .06 0-.04.24-.06.5-.06.75 0 2.07 1.34 3.75 3 3.75 1.01 0 1.9-.63 2.45-1.59.42.06.85.09 1.3.09s.88-.03 1.3-.09c.55.96 1.44 1.59 2.45 1.59 1.66 0 3-1.68 3-3.75 0-.25-.02-.51-.06-.75.02 0 .04 0 .06 0 1.25 0 2.25-1 2.25-2.25S20 12 18.75 12ZM9 7a.5.5 0 011-1A.5.5 0 019 7m6-1A.5.5 0 0114 7a.5.5 0 011-1"/>
</svg>