<svg xmlns="http://www.w3.org/2000/svg" viewBox="0 0 24 24">
   <path d="M8.16 9v-5.76a2.16 2.16 90 00-4.32 0v5.76a3.6 3.6 90 104.32 0m-2.16-6.48a.72.72 90 01.72.72v2.16h-1.44v-2.16a.72.72 90 01.72-.72ZM18 11C18 11 13.68 15.86 13.68 18.74 13.68 21.1304 15.6168 23.06 18 23.06A4.32 4.32 90 0022.32 18.74C22.32 15.86 18 11 18 11M19.7784 15.8384 20.5416 16.6016 16.2216 20.9216 15.4584 20.1584M16.4 15.86A.9.9 90 0117.3 16.76.9.9 90 0116.4 17.66.9.9 90 0115.5 16.76.9.9 90 0116.4 15.86M19.64 19.1A.9.9 90 0120.54 20 .9.9 90 0119.64 20.9.9.9 90 0118.74 20 .9.9 90 0119.64 19.1ZM20 1l-16 22 1.65 1.25 16-22"/>
</svg>