<svg xmlns="http://www.w3.org/2000/svg" viewBox="0 0 24 24">
   <path d="M9 12.1a.85.85 0 000 1.7.85.85 0 000-1.7ZM15.5 13.5a.75.75 0 000-1.5.75.75 0 000 1.5ZM12 11.5a1.25 1.25 0 000 2.5 1.25 1.25 0 000-2.5ZM14 10a1 1 0 000 2 1 1 0 000-2M6 2H18A2 2 0 0120 4V20A2 2 0 0118 22H6A2 2 0 014 20V4A2 2 0 016 2M7 4A1 1 0 006 5 1 1 0 007 6 1 1 0 008 5 1 1 0 007 4M10 4A1 1 0 009 5 1 1 0 0010 6 1 1 0 0011 5 1 1 0 0010 4M12 8A6 6 0 006 14 6 6 0 0012 20 6 6 0 0018 14 6 6 0 0012 8ZM7.03 14.53C9 16.5 9 12.5 11 14.5S13 12.5 15 14.5C16.135 15.663 16.709 14.733 16.97 14.53A5 5 0 017.03 14.53ZM7 14"/>
</svg>