<svg xmlns="http://www.w3.org/2000/svg" viewBox="0 0 24 24">
   <path d="M6 2H18A2 2 0 0120 4V20A2 2 0 0118 22H6A2 2 0 014 20V4A2 2 0 016 2M7 4A1 1 0 006 5 1 1 0 007 6 1 1 0 008 5 1 1 0 007 4M10 4A1 1 0 009 5 1 1 0 0010 6 1 1 0 0011 5 1 1 0 0010 4M12 8A6 6 0 006 14 6 6 0 0012 20 6 6 0 0018 14 6 6 0 0012 8ZM14.67 15.33C14.69 16.03 14.41 16.71 13.91 17.21 12.86 18.26 11.15 18.27 10.09 17.21 9.59 16.71 9.31 16.03 9.33 15.33 9.4 14.62 9.63 13.94 10 13.33 10.37 12.5 10.81 11.73 11.33 11L12 10C13.79 12.59 14.67 14.36 14.67 15.33"/>
</svg>