<svg xmlns="http://www.w3.org/2000/svg" viewBox="0 0 24 24">
   <path d="M14.9235.9738s-.866-.5-1.366.366l-10 17.3205c-.5.866.366 1.366.366 1.366l5.1962 3s.866.5 1.366-.366l10-17.3205s.5-.866-.366-1.366l-5.1962-3M9.9157 18.3475a.45.45 120 01.1647.6147.45.45 120 01-.6147.1647.45.45 120 01-.1647-.6147.45.45 120 01.6147-.1647Zm-2.3383-1.35a.45.45 120 01.1647.6147.45.45 120 01-.6147.1647c-.2182-.126-.2892-.3991-.1647-.6147a.45.45 120 01.6147-.1647m1.8738-1.1456A2.4 2.4 120 006.443 16.8622a2.4 2.4 120 00.6292 3.1103l.2895-.5014.5196.3-.2895.5014A2.4 2.4 120 0010.6 19.2622a2.4 2.4 120 00-.6292-3.1103l-.2895.5014-.5196-.3.2895-.5014m-1.451-1.5548 4.0426 2.334c.317.183.4268.5928.2438.9098l-2.334 4.0426a.666.666 120 01-.9098.2438l-4.0426-2.334c-.317-.183-.4268-.5928-.2438-.9098l2.334-4.0426a.666.666 120 01.9098-.2438m5.4154-2.0118a.45.45 120 01.1647.6147.45.45 120 01-.6147.1647.45.45 120 01-.1647-.6147.45.45 120 01.6147-.1647Zm-2.3383-1.35a.45.45 120 01.1647.6147.45.45 120 01-.6147.1647c-.2182-.126-.2892-.3991-.1647-.6147a.45.45 120 01.6147-.1647m1.8738-1.1456A2.4 2.4 120 009.9429 10.8a2.4 2.4 120 00.6292 3.1103l.2895-.5014.5196.3-.2895.5014A2.4 2.4 120 0014.0999 13.2a2.4 2.4 120 00-.6292-3.1103l-.2895.5014-.5196-.3.2895-.5014m-1.451-1.5548 4.0426 2.334c.317.183.4268.5928.2438.9098l-2.334 4.0426a.666.666 120 01-.9098.2438l-4.0426-2.334c-.317-.183-.4268-.5928-.2438-.9098l2.334-4.0426a.666.666 120 01.9098-.2438m5.4154-2.0118a.45.45 120 01.1647.6147.45.45 120 01-.6147.1647.45.45 120 01-.1647-.6147.45.45 120 01.6147-.1647Zm-2.3383-1.35a.45.45 120 01.1647.6147.45.45 120 01-.6147.1647c-.2182-.126-.2892-.3991-.1647-.6147a.45.45 120 01.6147-.1647M16.451 3.7275A2.4 2.4 120 0013.4428 4.7378a2.4 2.4 120 00.6292 3.1103l.2895-.5014.5196.3-.2895.5014a2.4 2.4 120 003.0082-1.0103 2.4 2.4 120 00-.6292-3.1103l-.2895.5014-.5196-.3.2895-.5014M15 2.1727l4.0426 2.334c.317.183.4268.5928.2438.9098l-2.334 4.0426a.666.666 120 01-.9098.2438L12 7.3689c-.317-.183-.4268-.5928-.2438-.9098l2.334-4.0426A.666.666 120 0115 2.1727"/>
</svg>