<svg xmlns="http://www.w3.org/2000/svg" viewBox="0 0 24 24">
   <path d="M12 12.5C11.2 12.5 10.55 13.15 10.55 13.95V14.06C10.34 13.89 10.05 13.8 9.74 13.8 8.95 13.8 8.3 14.45 8.3 15.24 8.3 15.82 8.63 16.32 9.12 16.55 8.63 16.78 8.3 17.27 8.3 17.86 8.3 18.65 8.95 19.3 9.74 19.3 10.05 19.3 10.34 19.2 10.55 19.04V19.15C10.55 19.95 11.2 20.6 12 20.6S13.45 19.95 13.45 19.15V19.04C13.67 19.2 13.95 19.3 14.26 19.3 15.05 19.3 15.7 18.65 15.7 17.86 15.7 17.27 15.37 16.78 14.88 16.55 15.37 16.32 15.7 15.82 15.7 15.25M12 18C11.2 18 10.55 17.35 10.55 16.55S11.2 15.1 12 15.1 13.45 15.75 13.45 16.55 12.8 18 12 18ZM15.7 15.25C15.7 14.45 15.05 13.81 14.26 13.81 13.95 13.81 13.67 13.9 13.45 14.06V13.95C13.45 13.15 12.8 12.5 12 12.5M9 10 15 10A3 3 0 0118 13L18 20A3 3 0 0115 23L9 23A3 3 0 016 20L6 13A3 3 0 019 10M12 8.2 10.9 7.4 12.28 5.6 10.9 3.8 12.88 1.2 13.98 2 12.6 3.8 13.98 5.6ZM8.25 8.2 7.15 7.4 8.53 5.6 7.15 3.8 9.13 1.2 10.23 2 8.85 3.8 10.23 5.6ZM15.75 8.2 14.65 7.4 16.03 5.6 14.65 3.8 16.63 1.2 17.73 2 16.35 3.8 17.73 5.6Z"/>
</svg>
