<svg xmlns="http://www.w3.org/2000/svg" viewBox="0 0 24 24">
   <path d="M16 20A1 1 0 0115 21L14.25 21 14.25 19 16 19ZM8 19 9.75 19 9.75 21 9 21A1 1 0 018 20ZM10.75 19 13.25 19 13.25 21 10.75 21ZM12 8.2 10.9 7.4 12.28 5.6 10.9 3.8 12.88 1.2 13.98 2 12.6 3.8 13.98 5.6ZM15.75 8.2 14.65 7.4 16.03 5.6 14.65 3.8 16.63 1.2 17.73 2 16.35 3.8 17.73 5.6ZM9.586 6.446 7.84 4.7 7.15 3.8 9.13 1.2 10.23 2 8.85 3.8 10.23 5.6ZM2.39 1.79l-1.27 1.27 7.056 7.056A3 3 0 006 13L6 20A3 3 0 009 23L15 23A3 3 0 0018 20L18 19.94 20.85 22.79l1.27-1.27ZM13.14 10l4.86 4.86L18 13A3 3 0 0015 10ZM14.353 16.293C14.353 16.294 14.073 16.541 13.6718 16.5366 13.4445 16.5366 13.2345 16.4636 13.0716 16.3479V16.4293C13.0716 17.0208 12.5915 17.5009 12 17.5009S10.9284 17.0208 10.9284 16.429V16.3476C10.7654 16.4634 10.5554 16.5363 10.3282 16.5363 9.7367 16.5363 9.2566 16.0562 9.2566 15.4647 9.2566 15.0362 9.5095 14.6718 9.8696 14.5003 9.5095 14.3289 9.2566 13.9602 9.2566 13.5359 9.2566 12.9444 9.7367 12.4643 10.3282 12.4643 10.454 12.465 10.546 12.486 10.546 12.486ZM12 15.5725C12.74 15.563 12.986 14.919 12.986 14.919L11.582 13.514C11.375 13.595 10.9284 13.9094 10.9284 14.5009S11.4085 15.5725 12 15.5725"/>
</svg>