<svg xmlns="http://www.w3.org/2000/svg" viewBox="0 0 24 24">
   <path d="M6 12C3.79 12 2 12.67 2 13.5 2 14.33 3.79 15 6 15S10 14.33 10 13.5C10 12.67 8.21 12 6 12M13 19V22H11V19H13M9.54 17.88 7.41 20 6 18.59 8.12 16.47 9.54 17.88M2.39 1.79m1 1-1.27 1.27 7.881 7.881C10.001 11.941 10 11.977 10 12L10 13 11.06 13 12.06 14 10 14 10 15C10 15 9.926 16.078 11 16.731 11.62 17.088 12.376 17.088 13 16.73 13.619 16.379 13.838 15.78 13.841 15.781L15.202 17.142 14.468 17.88 16.59 20 17.325 19.265 20.85 22.79l1.27-1.27ZM8 3 8 4.86 8.14 5 11 5 11 7.86 13 9.86 13 5 16 5 16 3ZM15.476 12.336 18.138 14.999C20.189 14.986 22 14.334 22 13.5 21.996 12.671 20.215 11.997 18 12 16.438 11.999 15.476 12.336 15.476 12.336Z"/>
</svg>