<svg xmlns="http://www.w3.org/2000/svg" viewBox="0 0 24 24">
   <path d="M16.875 4A.9.09 0 017.425 4 .9.09 0 0116.875 4ZM7.875 12.48A.9.9 90 018.775 13.38.9.9 90 017.875 14.28.9.9 0 016.975 13.38.9.9 90 017.875 12.48ZM19.8 6.8A.5 5.5 0 0120.303 12 5.5.5 90 0119.906 16.766L19.598 16.458A5.5.5 90 0119.296 12 .5 5.5 0 0119.8 6.8ZM2.39 1.79 1.12 3.06 3.715 5.655 3.154 6.179A2.7 2.7 0 002.475 7.98V18.78A2.7 2.7 0 005.175 21.48H15.975A2.7 2.7 0 0017.784 20.788L18.317 20.257 20.85 22.79 22.12 21.52ZM16.269 13.129A5.4 5.4 0 0011.126 7.986ZM7.084 9.027A5.4 5.4 90 0010.275 18.78 7.2 7.2 90 0010.275 18.78V18H10.875V18.78A5.4 5.4 90 0014.966 16.906L17.605 19.545A1.8 1.8 0 0115.975 20.58L5.175 20.58A1.8 1.8 0 013.375 18.78L3.375 7.98A1.8 1.8 0 014.41 6.35ZM6.341 3.201 6.833 3.693 7.533 2.994 19.033 2.994 17.033 4.994 8.134 4.994 9.32 6.18 15.975 6.18A1.8 1.8 0 0117.775 7.98L17.775 14.635 18.702 15.562 18.781 7 20.781 5 20.781 16.5 20.196 17.056 20.859 17.719 20.931 17.648A2.7 2.7 0 0021.375 16.08L21.375 5.3A2.7 2.7 0 0018.675 2.6L7.875 2.6A2.7 2 0 006.525 3.03"/>
</svg>