<svg xmlns="http://www.w3.org/2000/svg" viewBox="0 0 24 24">
   <path d="M8.072 14.3423A.924.924 90 008.072 16.1903.924.924 90 008.072 14.3423ZM11.9253 14.3425A.924.924 90 0011.9253 16.1905.924.924 90 0011.9253 14.3425ZM9.44 18.56C9.9 19.1 10.1 19.1 10.56 18.56 11.7 17.35 11.086 16.8858 10.4623 16.8835L9.5377 16.8835C8.914 16.8858 8.3 17.35 9.443 18.56M8.75 20.9C9.3 21.1 10.7 21.1 11.25 20.901 11.282 20.893 11.282 20.859 11.245 20.857 10.8 20.817 10.4 20.437 10 19.7 9.6 20.437 9.2 20.819 8.75 20.867 8.724 20.868 8.724 20.895 8.75 20.9ZM10 11.2801A5.775 5.775 90 0111.4786 11.441C15.411 15.6345 15.4041 16.2474 15.4149 17.1345 16.2311 20.5048 14.2214 21.1293 12.7284 21.0607 11.8914 22.0186 11.6535 21.987 10 22.0001 8.3465 21.987 8.1086 22.0186 7.2716 21.0607 5.7786 21.1293 3.7689 20.5048 4.5851 17.1345 4.5959 16.2474 4.589 15.6345 4.7807 14.8822 3.1545 14.076 4.549 9.7493 5.0533 7.9098 5.3729 7.1429 6.2807 7.2592 6.5302 7.7643 7.285 8.917 7.892 10.078 8.5214 11.441A5.775 5.775 90 0110 11.2801L15.417 16.78ZM7.566 11.725C7.07 10.507 6.516 9.506 5.9065 8.5851 5.8741 8.5089 5.8102 8.455 5.764 8.582 5.74 8.856 4.427 13.229 5.21 13.755 6.138 12.185 7.2754 11.8939 7.573 11.725ZM15.67 1A7.33 7.33 0 0023 8.33V7A6 6 0 0117 1ZM18.33 1C18.33 3.58 20.42 5.67 23 5.67V4.33C21.16 4.33 19.67 2.84 19.67 1ZM21 1A2 2 0 0023 3V1ZM2.39 1.79l19.73 19.73-1.27 1.27-19.73-19.73ZM12.51 9.37C12.538 9.343 12.853 8.704 13.47 7.764 13.718 7.259 14.628 7.14 14.948 7.912L15.451 9.747C15.653 10.561 15.932 11.648 15.982 12.841L14.943 11.803C14.763 10.741 14.51 9.68 14.237 8.582 14.19 8.455 14.126 8.51 14.093 8.584 13.83 8.994 13.538 9.44 13.207 10.069Z"/>
</svg>