<svg xmlns="http://www.w3.org/2000/svg" viewBox="0 0 24 24">
   <path d="M6 21C6 21.55 6.45 22 7 22H11C11.55 22 12 21.55 12 21V20H6V21M9 2C10.65 2 12.16 2.57 13.35 3.5L13.35 3.5C10.799 4.583 9.84 6.694 9.831 6.691L5.874 2.734A7 7 0 019 2ZM20.92 9.94 19.5 9.03 18.1 10 18.5 8.35 17.17 7.32 18.85 7.21 19.41 5.6 20.04 7.18 21.72 7.22 20.42 8.3 20.92 9.94M2.39 1.79 1.12 3.06 3.174 5.114A7 7 0 002 9 7 7 0 005 14.74L5 17A1 1 0 006 18L12 18A1 1 0 0013 17L13 16.32C10.643 15.192 9.292 12.884 9.073 11.013L20.85 22.79 22.12 21.52ZM19.39 13C18.639 13.901 17.854 14.206 17.499 14.359L11.484 8.344C12.246 6.234 14.061 5.513 15 5.34 15.34 5.29 15.64 5.63 15.5 5.97 15.05 7.25 15.12 8.71 15.85 9.97 16.58 11.24 17.79 12.03 19.12 12.25 19.47 12.3 19.62 12.74 19.39 13Z"/>
</svg>