<svg xmlns="http://www.w3.org/2000/svg" viewBox="0 0 24 24">
   <path d="M8.3316 19.1062 7.6838 21.5241 9.6099 22.0402 10.2577 19.6223 8.3316 19.1062M19.9884 12.3762 19.4723 14.3023 21.8901 14.9502 22.4062 13.0241 19.9884 12.3762ZM15.6684 4.8938 16.3162 2.4759 14.3901 1.9598 13.7423 4.3777 15.6684 4.8938M4.0116 11.6238 4.5277 9.6977 2.1099 9.0498 1.5938 10.9759 4.0116 11.6238M2.39 1.79 1.12 3.06 9.306 11.246 4.072 14.268 6.072 17.732 12.234 14.174 15.894 17.834 14.634 18.562 16.134 21.16 17.866 20.16 17.382 19.322 20.85 22.79 22.12 21.52ZM6.67 3.53 8.867 5.727 9.366 5.438 7.866 2.84ZM12.526 9.386 15.455 12.315 19.928 9.732 17.928 6.268Z"/>
</svg>