<svg xmlns="http://www.w3.org/2000/svg" viewBox="0 0 24 24">
   <path d="M1.26.66 23.26 22.66 21.99 23.93-.01 1.93ZM5 14.5 8.24 11.25 9.3 12.31 6.06 15.56 5 14.5M5.41 18.83 11.07 13.17 12.13 14.22 6.47 19.89 5.41 18.83ZM4.141 1 7.496 4.356C7.809 4.315 8.964 3.978 9 3L15 3A1 .7 0 0019 3L23 3 23 1ZM7 8 22 23 2 23A1 1 0 011 22L1 9A1 1 0 012 8ZM9.8 4 11.3 5.5 10.3 6.5 8.8 5ZM5.2 5 3.7 6.5 2.7 5.5 4.2 4ZM19.8 4 21.3 5.5 20.3 6.5 18.8 5ZM15.2 5 13.7 6.5 12.7 5.5 14.2 4ZM17 5.3 16.3 5.3 16.3 7.4213 17.7142 7.4213 17.7142 5.3M3 10 3 21 20 21 9 10 3 10ZM11.14 8 13.14 10 21 10 21 17.86 23 19.86 23 9A1 1 0 0022 8Z"/>
</svg>