<svg xmlns="http://www.w3.org/2000/svg" viewBox="0 0 24 24">
   <path d="M5 14.5 8.24 11.25 9.3 12.31 6.06 15.56 5 14.5M5.41 18.83 11.07 13.17 12.13 14.22 6.47 19.89 5.41 18.83ZM1 1 1 3 5 3A1 .7 0 009 3L15 3A1 .7 0 0019 3L23 3 23 1ZM2 8A1 1 0 001 9L1 22A1 1 0 002 23L22 23A1 1 0 0023 22L23 9A1 1 0 0022 8ZM9.8 4l1.5 1.5-1 1-1.5-1.5zm-4.6 1-1.5 1.5-1-1 1.5-1.5zm1.8.3-.7 0 0 2.1213 1.4142 0 0-2.1213M19.8 4l1.5 1.5-1 1-1.5-1.5zm-4.6 1-1.5 1.5-1-1 1.5-1.5zm1.8.3-.7 0 0 2.1213 1.4142 0 0-2.1213M3 10l18 0 0 11-18 0 0-11Z"/>
</svg>