<svg xmlns="http://www.w3.org/2000/svg" viewBox="0 0 24 24">
   <path d="M7.5 10.5a1.5 1.5 0 00-1.5 1.5A1.5 1.5 0 007.5 13.5 1.5 1.5 0 009 12 1.5 1.5 0 007.5 10.5M16.5 10.5A1.5 1.5 0 0015 12 1.5 1.5 0 0016.5 13.5 1.5 1.5 0 0018 12 1.5 1.5 0 0016.5 10.5ZM5.14 2l3 3A8 8 0 0111 4.07L11 6 13 6 13 4.07A8 8 0 0119 15.862L22 18.86 22 4.22A2.2 2.2 0 0019.78 2ZM2.39 1.79l-1.27 1.27L2.016 3.956A2.2 2.2 0 002 4.22L2 19.78A2.2 2.2 0 004.22 22L19.78 22A2.2 2.2 0 0020.044 21.984L20.85 22.79l1.27-1.27ZM16.599 18.539A8 8 0 0113 19.93L13 18 11 18 11 19.93A8 8 0 015.48 7.486Z"/>
</svg>