<svg xmlns="http://www.w3.org/2000/svg" viewBox="0 0 24 24">
   <path d="M21.5 9l-1.4256-1.9008-1.4256 1.9008h.9504v3.8016h-1.4256v-.9837c.3326-.1759.5702-.5132.5702-.9171 0-.5798-.4704-1.0454-1.0454-1.0454-.5798 0-1.0454.4657-1.0454 1.0454 0 .4039.2376.7413.5702.9171v.9837a.9504.9504 90 00.9504.9504h1.4256v1.4494c-.3374.1711-.5702.5227-.5702.9266a1.0454 1.0454 90 001.0454 1.0454 1.0454 1.0454 90 001.0454-1.0454c0-.4039-.2328-.7556-.5702-.9266v-1.4494h1.4256a.9504.9504 90 00.9504-.9504v-.9504h.4752v-1.9008h-1.9008v1.9008h.4752v.9504h-1.4256v-3.8016zM2.5 4.75l0 4.62a.66.66 90 00.66.66l11.88 0a.66.66 90 00.66-.66l0-4.62a.66.66 90 00-.66-.66l-11.88 0a.66.66 90 00-.66.66zm12.144.33.066 3.96-11.22 0 0-3.96zm-10.494 1.65 0 1.65 9.9 0 0-1.65zM2.5 14.75l0 4.62a.66.66 90 00.66.66l11.88 0a.66.66 90 00.66-.66l0-4.62a.66.66 90 00-.66-.66l-11.88 0a.66.66 90 00-.66.66zm12.144.33.066 3.96-11.22 0 0-3.96zm-10.494 1.65 0 1.65 9.9 0 0-1.65z"/>
</svg>