<svg xmlns="http://www.w3.org/2000/svg" viewBox="0 0 24 24">
   <path d="M21.5 9 20.0744 7.0992 18.6488 9H19.5992V12.8016H18.1736V11.8179C18.5062 11.642 18.7438 11.3047 18.7438 10.9008 18.7438 10.321 18.2734 9.8554 17.6984 9.8554 17.1186 9.8554 16.653 10.3211 16.653 10.9008 16.653 11.3047 16.8906 11.6421 17.2232 11.8179V12.8016A.9504.9504 90 0018.1736 13.752H19.5992V15.2014L19.599 15.201C19.502 15.251 19.151 15.45 19.052 15.912L20.291 17.151A1.0454 1.0454 90 0021.1198 16.128C21.1198 15.7241 20.887 15.3724 20.5496 15.2014V13.752H21.9752A.9504.9504 90 0022.9256 12.8016V11.8512H23.4008V9.9504H21.5V11.8512H21.9752V12.8016H20.5496V9ZM12.18 9.04 13.17 10.03 15.04 10.03A.66.66 90 0015.7 9.37L15.7 4.75A.66.66 90 0015.04 4.09L7.23 4.09 8.22 5.08 14.71 5.08 14.71 9.04 12.18 9.04ZM9.87 6.73 11.52 8.38 14.05 8.38 14.05 6.73 9.87 6.73ZM13.14 15.08 3.49 15.08 3.49 19.04 14.71 19.04 14.71 16.65ZM4.15 16.73 4.15 18.38 14.05 18.38 14.05 16.73ZM2.39 1.79 22.12 21.52 20.85 22.79 15.7 17.64 15.7 19.37A.66.66 0 0115.04 20.03L3.16 20.03A.66.66 0 012.5 19.37L2.5 14.75A.66.66 0 013.16 14.09L12.15 14.09 8.09 10.03 3.16 10.03A.66.66 0 012.5 9.37L2.5 4.75A.66.66 0 012.552 4.492L1.12 3.06ZM8.09 10.03M3.49 5.43 3.49 9.04 7.1 9.04 6.44 8.38 4.15 8.38 4.15 6.73 4.79 6.73Z"/>
</svg>